<?xml version="1.0" standalone="no"?>
<!DOCTYPE svg PUBLIC "-//W3C//DTD SVG 20010904//EN"
 "http://www.w3.org/TR/2001/REC-SVG-20010904/DTD/svg10.dtd">
<svg version="1.0" xmlns="http://www.w3.org/2000/svg"
 width="748.000000pt" height="334.000000pt" viewBox="0 0 748.000000 334.000000"
 preserveAspectRatio="xMidYMid meet">

<g transform="translate(0.000000,334.000000) scale(0.100000,-0.100000)"
fill="#000000" stroke="none">
<path d="M2145 3166 c-38 -8 -223 -46 -410 -84 -382 -78 -601 -117 -754 -132
-176 -17 -210 -14 -340 30 -64 22 -131 40 -148 40 -60 0 -66 -43 -17 -121 65
-104 79 -260 78 -864 -2 -836 -41 -1249 -130 -1358 -50 -61 -76 -121 -68 -154
12 -52 57 -123 91 -144 l34 -21 87 40 c193 89 330 117 652 133 295 15 741 -2
1364 -52 276 -22 324 -19 345 20 15 26 -22 93 -72 133 -133 106 -218 122 -519
98 -68 -6 -413 -24 -768 -40 -355 -17 -699 -34 -765 -39 -66 -5 -122 -7 -123
-5 -2 1 8 200 22 441 42 712 45 777 58 1263 l12 465 92 -3 c62 -2 226 12 506
43 1228 137 1249 140 1265 181 11 29 -57 78 -148 108 -101 34 -241 42 -344 22z"/>
<path d="M1975 2771 c-16 -10 -47 -37 -68 -60 -52 -54 -129 -104 -240 -156
-140 -65 -338 -137 -361 -132 -12 3 -51 13 -88 22 -121 32 -146 1 -89 -106 71
-131 97 -346 71 -595 -33 -321 -127 -528 -353 -772 -43 -45 -77 -87 -77 -92 0
-32 91 7 206 88 190 134 326 332 384 556 37 144 43 236 37 529 -3 152 -4 277
-2 277 2 0 154 41 337 90 518 141 578 161 578 195 0 32 -201 157 -275 170 -20
4 -40 -1 -60 -14z"/>
<path d="M2345 2163 c-11 -3 -112 -31 -225 -63 -219 -62 -388 -102 -513 -122
-67 -10 -77 -14 -77 -32 0 -12 -3 -38 -6 -58 l-7 -38 44 0 c24 0 112 9 194 20
83 11 155 20 161 20 6 0 14 -21 18 -47 31 -212 37 -306 36 -593 0 -315 7 -396
37 -458 35 -71 87 -43 118 62 33 109 38 184 39 517 1 234 4 340 12 350 37 46
21 115 -39 171 -17 15 -29 28 -26 28 25 0 292 55 363 74 210 58 239 110 92
159 -47 16 -172 22 -221 10z"/>
<path d="M2811 1873 c-12 -25 -396 -929 -408 -961 -4 -10 3 -13 26 -10 32 3
34 7 91 143 l59 140 217 0 218 0 31 -81 c18 -45 44 -98 59 -117 46 -60 137
-94 234 -88 31 2 27 27 -6 34 -39 8 -79 42 -104 90 -12 23 -99 229 -193 457
-140 340 -174 416 -191 418 -14 2 -24 -6 -33 -25z m80 -405 c49 -116 86 -215
83 -220 -3 -4 -86 -8 -185 -8 -136 0 -179 3 -179 13 0 19 182 438 188 432 3
-3 45 -101 93 -217z"/>
<path d="M3350 1891 c0 -5 17 -13 38 -17 54 -9 80 -29 91 -71 7 -24 11 -201
11 -470 l0 -433 65 0 65 0 0 252 0 253 223 -227 c185 -188 232 -230 281 -254
62 -29 148 -42 211 -30 37 7 46 23 18 32 -106 35 -177 95 -437 368 l-159 167
164 165 c186 187 226 219 298 235 35 7 51 16 51 26 0 13 -11 15 -68 11 -37 -3
-83 -13 -102 -23 -19 -9 -135 -117 -257 -238 l-223 -221 0 184 c0 283 -6 293
-166 298 -68 3 -104 0 -104 -7z"/>
<path d="M4370 1891 c0 -5 17 -13 38 -17 97 -18 96 -13 103 -389 7 -353 11
-381 72 -471 24 -38 48 -57 100 -83 62 -32 76 -35 177 -39 271 -11 379 71 410
312 5 39 10 212 10 384 l0 312 -29 0 -30 0 -3 -372 -3 -373 -32 -67 c-37 -79
-90 -120 -182 -139 -136 -28 -254 10 -308 99 -45 76 -53 143 -53 458 0 155 -5
295 -10 315 -18 63 -39 74 -156 77 -68 3 -104 0 -104 -7z"/>
<path d="M5530 1400 l0 -500 30 0 30 0 0 427 c0 234 3 423 7 419 4 -3 93 -194
198 -424 106 -229 198 -418 206 -420 10 -1 74 132 204 420 l190 423 6 -360 c4
-235 10 -373 17 -396 30 -89 83 -132 188 -149 74 -12 94 2 36 25 -26 11 -50
30 -62 50 -43 70 -50 143 -50 578 l0 408 -66 -3 -66 -3 -179 -395 -178 -394
-63 134 c-35 74 -118 253 -183 397 l-120 262 -72 1 -73 0 0 -500z"/>
<path d="M6842 1430 l3 -470 27 -27 c26 -26 34 -28 134 -31 87 -4 106 -2 102
9 -3 8 -24 16 -48 19 -32 4 -48 12 -64 33 -21 28 -21 39 -24 483 l-3 454 -65
0 -65 0 3 -470z"/>
<path d="M3190 556 c0 -128 4 -146 31 -146 16 0 18 3 9 19 -5 11 -10 69 -10
130 0 92 -3 111 -15 111 -12 0 -15 -19 -15 -114z"/>
<path d="M3373 659 c15 -9 17 -26 17 -129 0 -66 3 -120 8 -120 4 0 6 45 4 101
-2 68 0 100 7 98 6 -2 47 -48 91 -103 l80 -98 -2 133 -2 134 -5 -100 -6 -99
-74 91 c-66 81 -92 103 -126 103 -5 -1 -2 -5 8 -11z"/>
<path d="M3722 658 c-7 -7 -12 -18 -12 -25 0 -8 8 -5 21 8 13 13 30 19 47 17
l27 -3 3 -122 c2 -89 6 -123 15 -123 9 0 12 33 12 122 l0 123 45 6 c33 4 19 6
-50 7 -63 1 -100 -2 -108 -10z"/>
<path d="M4044 654 c13 -12 16 -39 16 -130 l0 -114 75 0 c66 0 76 2 86 21 11
21 10 21 -12 5 -14 -9 -43 -16 -71 -16 l-48 0 0 59 0 60 53 4 52 3 -52 2 -53
2 0 55 0 55 45 0 c32 0 51 -6 65 -20 13 -13 20 -15 20 -7 0 28 -25 37 -108 37
-76 0 -82 -1 -68 -16z"/>
<path d="M4358 658 c8 -8 12 -52 12 -130 0 -98 3 -118 15 -118 12 0 15 13 15
60 0 53 2 60 20 60 13 0 27 -14 40 -40 27 -54 55 -80 83 -80 19 1 20 2 5 10
-9 6 -30 33 -47 60 l-31 50 25 12 c28 13 40 45 31 83 -7 29 -54 45 -130 45
-39 0 -47 -3 -38 -12z m122 -18 c41 -41 7 -107 -52 -98 -19 2 -23 10 -26 47
-2 24 -1 50 2 57 8 21 53 17 76 -6z"/>
<path d="M4673 659 c14 -9 17 -28 19 -132 l2 -122 3 103 c2 56 7 102 11 102 4
-1 41 -44 82 -96 41 -53 78 -98 82 -100 5 -3 7 55 6 128 -2 121 -2 124 -5 36
-2 -54 -7 -98 -11 -98 -4 0 -34 34 -67 76 -65 83 -99 114 -124 114 -14 -1 -14
-2 2 -11z"/>
<path d="M5099 624 c-11 -27 -29 -69 -39 -94 -10 -25 -26 -62 -34 -82 -9 -21
-14 -38 -11 -38 3 0 13 17 23 38 17 36 18 37 72 37 48 0 56 -3 67 -25 14 -29
40 -50 62 -50 12 0 12 2 -2 13 -9 6 -37 64 -63 127 -25 63 -48 117 -50 119 -2
2 -13 -18 -25 -45z m37 -61 c11 -27 21 -51 22 -55 2 -5 -20 -8 -48 -8 -28 0
-50 3 -48 8 2 4 11 28 22 55 10 26 22 47 26 47 4 0 16 -21 26 -47z"/>
<path d="M5353 663 c-7 -2 -13 -11 -13 -19 0 -13 3 -13 22 0 12 9 33 16 45 16
23 0 23 -2 23 -125 0 -103 3 -125 15 -125 12 0 15 23 17 123 l3 122 45 6 c32
4 17 6 -50 7 -52 0 -101 -2 -107 -5z"/>
<path d="M5682 543 l3 -128 25 -2 c14 -1 19 0 13 3 -10 4 -13 40 -13 130 0
105 -2 124 -15 124 -13 0 -15 -19 -13 -127z"/>
<path d="M5908 650 c-36 -28 -51 -72 -46 -131 9 -89 83 -138 161 -106 79 34
97 159 31 228 -23 24 -36 29 -75 29 -31 0 -55 -6 -71 -20z m107 4 c45 -18 61
-142 25 -201 -36 -60 -109 -52 -137 14 -22 53 -13 136 17 168 23 25 60 32 95
19z"/>
<path d="M6223 659 c14 -9 17 -28 19 -132 l2 -122 3 103 c2 59 8 102 13 100 5
-2 46 -47 90 -102 l80 -98 -2 128 -2 129 -5 -95 -6 -94 -74 91 c-66 81 -92
103 -126 103 -5 -1 -2 -5 8 -11z"/>
<path d="M6622 547 c-29 -67 -52 -127 -51 -132 0 -6 9 9 19 33 l19 42 56 0
c53 0 57 -1 67 -30 10 -30 34 -50 59 -50 8 0 7 6 -4 18 -8 9 -34 64 -58 122
-23 58 -45 108 -49 112 -3 4 -29 -47 -58 -115z m73 5 c10 -23 16 -45 13 -48
-3 -3 -26 -4 -50 -2 l-45 3 24 54 c26 58 30 58 58 -7z"/>
<path d="M6918 658 c8 -8 12 -52 12 -130 l0 -118 88 2 87 2 -72 3 -73 4 0 112
c0 114 -7 137 -39 137 -12 0 -12 -3 -3 -12z"/>
</g>
</svg>
